<?xml version="1.0" ?><!DOCTYPE svg  PUBLIC '-//W3C//DTD SVG 1.1//EN'  'http://www.w3.org/Graphics/SVG/1.1/DTD/svg11.dtd'><svg enable-background="new 0 0 32 32" height="32px" id="Слой_1" version="1.1" viewBox="0 0 32 32" width="32px" xml:space="preserve" xmlns="http://www.w3.org/2000/svg" xmlns:xlink="http://www.w3.org/1999/xlink"><g id="Arrow_Drop_Down_Square"><path d="M30,0H2C0.895,0,0,0.895,0,2v28c0,1.105,0.895,2,2,2h28c1.104,0,2-0.895,2-2V2C32,0.895,31.104,0,30,0z    M30,30H2V2h28V30z" fill="#121313"/><path clip-rule="evenodd" d="M27,12.106   c0-0.564-0.489-1.01-1.044-0.995H6.013c-0.887-0.024-1.38,1.07-0.742,1.702l9.999,9.9c0.394,0.39,1.031,0.376,1.429,0l9.991-9.892   C26.879,12.64,27,12.388,27,12.106z M15.984,20.591L8.418,13.1H23.55L15.984,20.591z" fill="#121313" fill-rule="evenodd" id="Arrow_Drop_Down_1_"/></g><g/><g/><g/><g/><g/><g/></svg>