<svg width="32" height="32" xmlns="http://www.w3.org/2000/svg">

 <g>
  <title>background</title>
  <rect fill="none" id="canvas_background" height="402" width="582" y="-1" x="-1"/>
 </g>
 <g>
  <title>Layer 1</title>
  <rect stroke="null" id="svg_8" height="29.765142" width="30.155762" y="0.826092" x="0.883055" stroke-opacity="null" stroke-width="null" fill="#000000"/>
  <path id="svg_1" fill="#ffffff" d="m30,0l-28,0c-1.105,0 -2,0.895 -2,2l0,28c0,1.105 0.895,2 2,2l28,0c1.104,0 2,-0.895 2,-2l0,-28c0,-1.105 -0.896,-2 -2,-2zm0,30l-28,0l0,-28l28,0l0,28z"/>
  <path id="Arrow_Drop_Down_1_" fill-rule="evenodd" fill="#ffffff" d="m27,12.106c0,-0.564 -0.489,-1.01 -1.044,-0.995l-19.943,0c-0.887,-0.024 -1.38,1.07 -0.742,1.702l9.999,9.9c0.394,0.39 1.031,0.376 1.429,0l9.991,-9.892c0.189,-0.181 0.31,-0.433 0.31,-0.715zm-11.016,8.485l-7.566,-7.491l15.132,0l-7.566,7.491z" clip-rule="evenodd"/>
 </g>
</svg>